<?xml version="1.0" standalone="no"?>
<!DOCTYPE svg PUBLIC "-//W3C//DTD SVG 20010904//EN"
 "http://www.w3.org/TR/2001/REC-SVG-20010904/DTD/svg10.dtd">
<svg version="1.0" xmlns="http://www.w3.org/2000/svg"
 width="700.000000pt" height="700.000000pt" viewBox="0 0 700.000000 700.000000"
 preserveAspectRatio="xMidYMid meet">
<metadata>
Created by potrace 1.11, written by Peter Selinger 2001-2013
</metadata>
<g transform="translate(0.000000,700.000000) scale(0.100000,-0.100000)"
fill="#000000" stroke="none">
<path d="M3110 6200 l0 -409 -37 -10 c-21 -6 -60 -15 -86 -21 -26 -6 -98 -29
-160 -51 -474 -175 -794 -516 -862 -916 -3 -18 -8 -48 -11 -65 -15 -83 -5
-310 20 -433 21 -105 74 -236 134 -330 59 -93 205 -236 317 -311 209 -141 406
-223 1033 -434 491 -164 678 -258 791 -398 91 -111 121 -212 122 -407 1 -175
-40 -290 -141 -394 -109 -112 -250 -176 -480 -216 -84 -15 -346 -14 -425 1
-402 77 -676 369 -696 742 l-3 42 -388 0 -388 0 0 -55 c0 -120 37 -302 90
-440 24 -63 90 -188 134 -254 93 -139 300 -330 451 -416 158 -90 369 -173 523
-205 l62 -13 0 -408 0 -409 390 0 390 0 0 403 c0 376 1 403 18 404 14 2 112
21 197 38 11 3 56 15 100 29 528 159 861 518 920 991 7 52 7 278 1 318 -3 18
-8 51 -10 74 -3 22 -8 52 -10 65 -3 12 -8 35 -10 50 -7 45 -56 179 -89 243
-147 292 -431 514 -901 705 -152 61 -246 94 -531 185 -449 143 -548 182 -675
269 -88 60 -156 142 -185 227 -38 106 -38 251 -1 361 71 213 241 356 504 425
83 22 120 26 257 27 250 2 359 -19 510 -98 91 -47 204 -164 247 -256 55 -115
81 -225 82 -347 0 -36 4 -43 21 -44 53 -3 701 -4 711 -1 7 2 10 22 8 50 -21
302 -80 489 -223 707 -62 95 -237 267 -342 337 -150 101 -367 193 -536 228
l-63 13 0 408 0 409 -390 0 -390 0 0 -410z"/>
</g>
</svg>
